<svg width="1028" height="705" viewBox="0 0 1028 705" fill="none" xmlns="http://www.w3.org/2000/svg">
<g clip-path="url(#clip0)">
<g filter="url(#filter0_d)">
<rect width="1028" height="700" rx="15" fill="#141415"/>
<rect x="0.5" y="0.5" width="1027" height="699" rx="14.5" stroke="#2C2C2C"/>
</g>
<rect x="23.5" y="25.5" width="361" height="83" rx="15.5" fill="#232526" stroke="#2C2C2C"/>
<path d="M48.016 42.008H51.448L56.848 54.872H56.944L62.296 42.008H65.728V59H63.424V45.032H63.376L57.64 59H56.104L50.368 45.032H50.32V59H48.016V42.008ZM71.134 53.312C71.134 53.888 71.222 54.424 71.398 54.92C71.574 55.4 71.822 55.816 72.142 56.168C72.462 56.504 72.854 56.776 73.318 56.984C73.782 57.176 74.302 57.272 74.878 57.272C75.454 57.272 75.974 57.176 76.438 56.984C76.902 56.776 77.294 56.504 77.614 56.168C77.934 55.816 78.182 55.4 78.358 54.92C78.534 54.424 78.622 53.888 78.622 53.312C78.622 52.736 78.534 52.208 78.358 51.728C78.182 51.232 77.934 50.816 77.614 50.48C77.294 50.128 76.902 49.856 76.438 49.664C75.974 49.456 75.454 49.352 74.878 49.352C74.302 49.352 73.782 49.456 73.318 49.664C72.854 49.856 72.462 50.128 72.142 50.48C71.822 50.816 71.574 51.232 71.398 51.728C71.222 52.208 71.134 52.736 71.134 53.312ZM68.83 53.312C68.83 52.48 68.982 51.704 69.286 50.984C69.606 50.264 70.038 49.632 70.582 49.088C71.126 48.544 71.766 48.12 72.502 47.816C73.238 47.496 74.03 47.336 74.878 47.336C75.726 47.336 76.518 47.496 77.254 47.816C77.99 48.12 78.63 48.544 79.174 49.088C79.718 49.632 80.142 50.264 80.446 50.984C80.766 51.704 80.926 52.48 80.926 53.312C80.926 54.144 80.766 54.928 80.446 55.664C80.142 56.384 79.718 57.016 79.174 57.56C78.63 58.088 77.99 58.512 77.254 58.832C76.518 59.136 75.726 59.288 74.878 59.288C74.03 59.288 73.238 59.136 72.502 58.832C71.766 58.512 71.126 58.088 70.582 57.56C70.038 57.016 69.606 56.384 69.286 55.664C68.982 54.928 68.83 54.144 68.83 53.312ZM83.632 47.624H85.792V49.376H85.84C86.112 48.768 86.584 48.28 87.256 47.912C87.928 47.528 88.704 47.336 89.584 47.336C90.128 47.336 90.648 47.424 91.144 47.6C91.656 47.76 92.096 48.016 92.464 48.368C92.848 48.72 93.152 49.176 93.376 49.736C93.6 50.28 93.712 50.928 93.712 51.68V59H91.552V52.28C91.552 51.752 91.48 51.304 91.336 50.936C91.192 50.552 91 50.248 90.76 50.024C90.52 49.784 90.24 49.616 89.92 49.52C89.616 49.408 89.296 49.352 88.96 49.352C88.512 49.352 88.096 49.424 87.712 49.568C87.328 49.712 86.992 49.944 86.704 50.264C86.416 50.568 86.192 50.96 86.032 51.44C85.872 51.92 85.792 52.488 85.792 53.144V59H83.632V47.624ZM108.368 59H106.208V57.368H106.16C105.744 57.976 105.168 58.448 104.432 58.784C103.712 59.12 102.968 59.288 102.2 59.288C101.32 59.288 100.52 59.136 99.7999 58.832C99.0959 58.528 98.4879 58.104 97.9759 57.56C97.4799 57.016 97.0959 56.384 96.8239 55.664C96.5519 54.944 96.4159 54.16 96.4159 53.312C96.4159 52.464 96.5519 51.68 96.8239 50.96C97.0959 50.224 97.4799 49.592 97.9759 49.064C98.4879 48.52 99.0959 48.096 99.7999 47.792C100.52 47.488 101.32 47.336 102.2 47.336C103.016 47.336 103.784 47.512 104.504 47.864C105.224 48.2 105.776 48.664 106.16 49.256H106.208V40.856H108.368V59ZM102.464 57.272C103.04 57.272 103.56 57.176 104.024 56.984C104.488 56.776 104.88 56.504 105.2 56.168C105.52 55.816 105.768 55.4 105.944 54.92C106.12 54.424 106.208 53.888 106.208 53.312C106.208 52.736 106.12 52.208 105.944 51.728C105.768 51.232 105.52 50.816 105.2 50.48C104.88 50.128 104.488 49.856 104.024 49.664C103.56 49.456 103.04 49.352 102.464 49.352C101.888 49.352 101.368 49.456 100.904 49.664C100.44 49.856 100.048 50.128 99.7279 50.48C99.4079 50.816 99.1599 51.232 98.9839 51.728C98.8079 52.208 98.7199 52.736 98.7199 53.312C98.7199 53.888 98.8079 54.424 98.9839 54.92C99.1599 55.4 99.4079 55.816 99.7279 56.168C100.048 56.504 100.44 56.776 100.904 56.984C101.368 57.176 101.888 57.272 102.464 57.272ZM111.688 49.016C112.296 48.456 113 48.04 113.8 47.768C114.6 47.48 115.4 47.336 116.2 47.336C117.032 47.336 117.744 47.44 118.336 47.648C118.944 47.856 119.44 48.136 119.824 48.488C120.208 48.84 120.488 49.248 120.664 49.712C120.856 50.16 120.952 50.632 120.952 51.128V56.936C120.952 57.336 120.96 57.704 120.976 58.04C120.992 58.376 121.016 58.696 121.048 59H119.128C119.08 58.424 119.056 57.848 119.056 57.272H119.008C118.528 58.008 117.96 58.528 117.304 58.832C116.648 59.136 115.888 59.288 115.024 59.288C114.496 59.288 113.992 59.216 113.512 59.072C113.032 58.928 112.608 58.712 112.24 58.424C111.888 58.136 111.608 57.784 111.4 57.368C111.192 56.936 111.088 56.44 111.088 55.88C111.088 55.144 111.248 54.528 111.568 54.032C111.904 53.536 112.352 53.136 112.912 52.832C113.488 52.512 114.152 52.288 114.904 52.16C115.672 52.016 116.488 51.944 117.352 51.944H118.936V51.464C118.936 51.176 118.88 50.888 118.768 50.6C118.656 50.312 118.488 50.056 118.264 49.832C118.04 49.592 117.76 49.408 117.424 49.28C117.088 49.136 116.688 49.064 116.224 49.064C115.808 49.064 115.44 49.104 115.12 49.184C114.816 49.264 114.536 49.368 114.28 49.496C114.024 49.608 113.792 49.744 113.584 49.904C113.376 50.064 113.176 50.216 112.984 50.36L111.688 49.016ZM117.784 53.528C117.272 53.528 116.744 53.56 116.2 53.624C115.672 53.672 115.184 53.776 114.736 53.936C114.304 54.096 113.944 54.32 113.656 54.608C113.384 54.896 113.248 55.264 113.248 55.712C113.248 56.368 113.464 56.84 113.896 57.128C114.344 57.416 114.944 57.56 115.696 57.56C116.288 57.56 116.792 57.464 117.208 57.272C117.624 57.064 117.96 56.8 118.216 56.48C118.472 56.16 118.656 55.808 118.768 55.424C118.88 55.024 118.936 54.632 118.936 54.248V53.528H117.784ZM122.717 47.624H125.213L128.597 56.504H128.645L131.861 47.624H134.189L128.789 61.448C128.597 61.944 128.397 62.392 128.189 62.792C127.981 63.208 127.733 63.56 127.445 63.848C127.157 64.136 126.805 64.36 126.389 64.52C125.989 64.68 125.493 64.76 124.901 64.76C124.581 64.76 124.253 64.736 123.917 64.688C123.597 64.656 123.285 64.576 122.981 64.448L123.245 62.48C123.677 62.656 124.109 62.744 124.541 62.744C124.877 62.744 125.157 62.696 125.381 62.6C125.621 62.52 125.821 62.392 125.981 62.216C126.157 62.056 126.301 61.864 126.413 61.64C126.525 61.416 126.637 61.16 126.749 60.872L127.445 59.072L122.717 47.624Z" fill="white"/>
<path d="M49.432 76.212H50.488V81.778C50.488 82.2693 50.411 82.6727 50.257 82.988C50.103 83.296 49.9087 83.5417 49.674 83.725C49.4467 83.901 49.201 84.022 48.937 84.088C48.673 84.1613 48.431 84.198 48.211 84.198C47.661 84.198 47.1953 84.0587 46.814 83.78C46.44 83.494 46.2017 83.065 46.099 82.493L47.133 82.262C47.1917 82.5553 47.3127 82.7863 47.496 82.955C47.6793 83.1237 47.9177 83.208 48.211 83.208C48.475 83.208 48.684 83.1567 48.838 83.054C48.9993 82.9513 49.124 82.8193 49.212 82.658C49.3 82.4893 49.3587 82.2987 49.388 82.086C49.4173 81.8733 49.432 81.657 49.432 81.437V76.212ZM56.6746 84H55.6846V83.197H55.6626C55.538 83.4757 55.3216 83.703 55.0136 83.879C54.7056 84.0477 54.35 84.132 53.9466 84.132C53.69 84.132 53.448 84.0917 53.2206 84.011C52.9933 83.9377 52.7916 83.8203 52.6156 83.659C52.447 83.4977 52.3113 83.2923 52.2086 83.043C52.106 82.7863 52.0546 82.4857 52.0546 82.141V78.786H53.0446V81.866C53.0446 82.108 53.0776 82.317 53.1436 82.493C53.2096 82.6617 53.2976 82.801 53.4076 82.911C53.5176 83.0137 53.6423 83.0907 53.7816 83.142C53.9283 83.186 54.0786 83.208 54.2326 83.208C54.438 83.208 54.6286 83.175 54.8046 83.109C54.9806 83.043 55.1346 82.9403 55.2666 82.801C55.3986 82.6543 55.5013 82.471 55.5746 82.251C55.648 82.031 55.6846 81.7707 55.6846 81.47V78.786H56.6746V84ZM58.1669 78.786H59.1569V79.589H59.1789C59.3036 79.3103 59.5199 79.0867 59.8279 78.918C60.1359 78.742 60.4916 78.654 60.8949 78.654C61.1443 78.654 61.3826 78.6943 61.6099 78.775C61.8446 78.8483 62.0463 78.9657 62.2149 79.127C62.3909 79.2883 62.5303 79.4973 62.6329 79.754C62.7356 80.0033 62.7869 80.3003 62.7869 80.645V84H61.7969V80.92C61.7969 80.678 61.7639 80.4727 61.6979 80.304C61.6319 80.128 61.5439 79.9887 61.4339 79.886C61.3239 79.776 61.1956 79.699 61.0489 79.655C60.9096 79.6037 60.7629 79.578 60.6089 79.578C60.4036 79.578 60.2129 79.611 60.0369 79.677C59.8609 79.743 59.7069 79.8493 59.5749 79.996C59.4429 80.1353 59.3403 80.315 59.2669 80.535C59.1936 80.755 59.1569 81.0153 59.1569 81.316V84H58.1669V78.786ZM65.0273 81.756C65.0273 81.9833 65.0749 82.1923 65.1703 82.383C65.2729 82.5663 65.4049 82.724 65.5663 82.856C65.7276 82.988 65.9146 83.0907 66.1273 83.164C66.3399 83.2373 66.5599 83.274 66.7873 83.274C67.0953 83.274 67.3629 83.2043 67.5903 83.065C67.8176 82.9183 68.0266 82.7277 68.2173 82.493L68.9653 83.065C68.4153 83.7763 67.6453 84.132 66.6553 84.132C66.2446 84.132 65.8706 84.0623 65.5333 83.923C65.2033 83.7837 64.9209 83.593 64.6863 83.351C64.4589 83.1017 64.2829 82.812 64.1583 82.482C64.0336 82.1447 63.9713 81.7817 63.9713 81.393C63.9713 81.0043 64.0373 80.645 64.1693 80.315C64.3086 79.9777 64.4956 79.688 64.7303 79.446C64.9723 79.1967 65.2583 79.0023 65.5883 78.863C65.9183 78.7237 66.2776 78.654 66.6663 78.654C67.1283 78.654 67.5169 78.7347 67.8323 78.896C68.1549 79.0573 68.4189 79.27 68.6243 79.534C68.8296 79.7907 68.9763 80.084 69.0643 80.414C69.1596 80.7367 69.2073 81.0667 69.2073 81.404V81.756H65.0273ZM68.1513 80.964C68.1439 80.744 68.1073 80.5423 68.0413 80.359C67.9826 80.1757 67.8909 80.018 67.7663 79.886C67.6416 79.7467 67.4839 79.6403 67.2933 79.567C67.1099 79.4863 66.8936 79.446 66.6443 79.446C66.4023 79.446 66.1786 79.4937 65.9733 79.589C65.7753 79.677 65.6066 79.7943 65.4673 79.941C65.3279 80.0877 65.2179 80.2527 65.1373 80.436C65.0639 80.612 65.0273 80.788 65.0273 80.964H68.1513ZM73.2111 82.878L76.3351 79.776C76.4451 79.6733 76.5514 79.5633 76.6541 79.446C76.7567 79.3213 76.8484 79.193 76.9291 79.061C77.0097 78.929 77.0721 78.7897 77.1161 78.643C77.1674 78.4963 77.1931 78.3423 77.1931 78.181C77.1931 77.9903 77.1564 77.818 77.0831 77.664C77.0171 77.51 76.9217 77.3817 76.7971 77.279C76.6797 77.169 76.5367 77.0847 76.3681 77.026C76.2067 76.9673 76.0344 76.938 75.8511 76.938C75.4697 76.938 75.1544 77.0443 74.9051 77.257C74.6557 77.4697 74.4981 77.763 74.4321 78.137L73.2881 78.038C73.3394 77.6933 73.4384 77.3963 73.5851 77.147C73.7391 76.8903 73.9261 76.6777 74.1461 76.509C74.3734 76.3403 74.6301 76.2157 74.9161 76.135C75.2094 76.0543 75.5247 76.014 75.8621 76.014C76.1994 76.014 76.5147 76.0617 76.8081 76.157C77.1087 76.245 77.3691 76.3807 77.5891 76.564C77.8164 76.74 77.9924 76.9637 78.1171 77.235C78.2491 77.499 78.3151 77.8107 78.3151 78.17C78.3151 78.4267 78.2747 78.6687 78.1941 78.896C78.1207 79.116 78.0217 79.325 77.8971 79.523C77.7724 79.721 77.6294 79.908 77.4681 80.084C77.3067 80.26 77.1381 80.4323 76.9621 80.601L74.3991 83.076H78.3151V84H73.2111V82.878Z" fill="#DFDFDF"/>
<rect x="398.5" y="25.5" width="361" height="83" rx="15.5" fill="#232526" stroke="#2C2C2C"/>
<path d="M426.736 44.168H421.264V42.008H434.512V44.168H429.04V59H426.736V44.168ZM444.079 59H441.919V57.248H441.871C441.599 57.856 441.127 58.352 440.455 58.736C439.783 59.104 439.007 59.288 438.127 59.288C437.567 59.288 437.039 59.2 436.543 59.024C436.047 58.864 435.607 58.608 435.223 58.256C434.855 57.904 434.559 57.456 434.335 56.912C434.111 56.352 433.999 55.696 433.999 54.944V47.624H436.159V54.344C436.159 54.872 436.231 55.328 436.375 55.712C436.519 56.08 436.711 56.384 436.951 56.624C437.191 56.848 437.463 57.016 437.767 57.128C438.087 57.224 438.415 57.272 438.751 57.272C439.199 57.272 439.615 57.2 439.999 57.056C440.383 56.912 440.719 56.688 441.007 56.384C441.295 56.064 441.519 55.664 441.679 55.184C441.839 54.704 441.919 54.136 441.919 53.48V47.624H444.079V59ZM448.967 54.104C448.967 54.6 449.071 55.056 449.279 55.472C449.503 55.872 449.791 56.216 450.143 56.504C450.495 56.792 450.903 57.016 451.367 57.176C451.831 57.336 452.311 57.416 452.807 57.416C453.479 57.416 454.063 57.264 454.559 56.96C455.055 56.64 455.511 56.224 455.927 55.712L457.559 56.96C456.359 58.512 454.679 59.288 452.519 59.288C451.623 59.288 450.807 59.136 450.071 58.832C449.351 58.528 448.735 58.112 448.223 57.584C447.727 57.04 447.343 56.408 447.071 55.688C446.799 54.952 446.663 54.16 446.663 53.312C446.663 52.464 446.807 51.68 447.095 50.96C447.399 50.224 447.807 49.592 448.319 49.064C448.847 48.52 449.471 48.096 450.191 47.792C450.911 47.488 451.695 47.336 452.543 47.336C453.551 47.336 454.399 47.512 455.087 47.864C455.791 48.216 456.367 48.68 456.815 49.256C457.263 49.816 457.583 50.456 457.775 51.176C457.983 51.88 458.087 52.6 458.087 53.336V54.104H448.967ZM455.783 52.376C455.767 51.896 455.687 51.456 455.543 51.056C455.415 50.656 455.215 50.312 454.943 50.024C454.671 49.72 454.327 49.488 453.911 49.328C453.511 49.152 453.039 49.064 452.495 49.064C451.967 49.064 451.479 49.168 451.031 49.376C450.599 49.568 450.231 49.824 449.927 50.144C449.623 50.464 449.383 50.824 449.207 51.224C449.047 51.608 448.967 51.992 448.967 52.376H455.783ZM466.719 50.48C466.463 50.16 466.143 49.896 465.759 49.688C465.391 49.464 464.935 49.352 464.391 49.352C463.879 49.352 463.431 49.464 463.047 49.688C462.679 49.896 462.495 50.208 462.495 50.624C462.495 50.96 462.599 51.232 462.807 51.44C463.031 51.648 463.287 51.816 463.575 51.944C463.879 52.072 464.199 52.168 464.535 52.232C464.871 52.296 465.159 52.352 465.399 52.4C465.863 52.512 466.295 52.648 466.695 52.808C467.111 52.968 467.463 53.176 467.751 53.432C468.055 53.688 468.287 54 468.447 54.368C468.623 54.736 468.711 55.184 468.711 55.712C468.711 56.352 468.575 56.904 468.303 57.368C468.031 57.816 467.679 58.184 467.247 58.472C466.815 58.76 466.319 58.968 465.759 59.096C465.215 59.224 464.663 59.288 464.103 59.288C463.159 59.288 462.327 59.144 461.607 58.856C460.903 58.568 460.271 58.04 459.711 57.272L461.343 55.928C461.695 56.28 462.087 56.592 462.519 56.864C462.951 57.136 463.479 57.272 464.103 57.272C464.375 57.272 464.647 57.248 464.919 57.2C465.207 57.136 465.455 57.048 465.663 56.936C465.887 56.808 466.063 56.656 466.191 56.48C466.335 56.288 466.407 56.072 466.407 55.832C466.407 55.512 466.303 55.248 466.095 55.04C465.903 54.832 465.663 54.672 465.375 54.56C465.103 54.432 464.807 54.336 464.487 54.272C464.183 54.192 463.911 54.128 463.671 54.08C463.207 53.968 462.767 53.84 462.351 53.696C461.935 53.552 461.567 53.36 461.247 53.12C460.927 52.88 460.671 52.576 460.479 52.208C460.287 51.84 460.191 51.384 460.191 50.84C460.191 50.248 460.311 49.736 460.551 49.304C460.807 48.856 461.135 48.488 461.535 48.2C461.951 47.912 462.415 47.696 462.927 47.552C463.455 47.408 463.983 47.336 464.511 47.336C465.279 47.336 466.015 47.48 466.719 47.768C467.423 48.056 467.983 48.536 468.399 49.208L466.719 50.48ZM482.735 59H480.575V57.368H480.527C480.111 57.976 479.535 58.448 478.799 58.784C478.079 59.12 477.335 59.288 476.567 59.288C475.687 59.288 474.887 59.136 474.167 58.832C473.463 58.528 472.855 58.104 472.343 57.56C471.847 57.016 471.463 56.384 471.191 55.664C470.919 54.944 470.783 54.16 470.783 53.312C470.783 52.464 470.919 51.68 471.191 50.96C471.463 50.224 471.847 49.592 472.343 49.064C472.855 48.52 473.463 48.096 474.167 47.792C474.887 47.488 475.687 47.336 476.567 47.336C477.383 47.336 478.151 47.512 478.871 47.864C479.591 48.2 480.143 48.664 480.527 49.256H480.575V40.856H482.735V59ZM476.831 57.272C477.407 57.272 477.927 57.176 478.391 56.984C478.855 56.776 479.247 56.504 479.567 56.168C479.887 55.816 480.135 55.4 480.311 54.92C480.487 54.424 480.575 53.888 480.575 53.312C480.575 52.736 480.487 52.208 480.311 51.728C480.135 51.232 479.887 50.816 479.567 50.48C479.247 50.128 478.855 49.856 478.391 49.664C477.927 49.456 477.407 49.352 476.831 49.352C476.255 49.352 475.735 49.456 475.271 49.664C474.807 49.856 474.415 50.128 474.095 50.48C473.775 50.816 473.527 51.232 473.351 51.728C473.175 52.208 473.087 52.736 473.087 53.312C473.087 53.888 473.175 54.424 473.351 54.92C473.527 55.4 473.775 55.816 474.095 56.168C474.415 56.504 474.807 56.776 475.271 56.984C475.735 57.176 476.255 57.272 476.831 57.272ZM486.055 49.016C486.663 48.456 487.367 48.04 488.167 47.768C488.967 47.48 489.767 47.336 490.567 47.336C491.399 47.336 492.111 47.44 492.703 47.648C493.311 47.856 493.807 48.136 494.191 48.488C494.575 48.84 494.855 49.248 495.031 49.712C495.223 50.16 495.319 50.632 495.319 51.128V56.936C495.319 57.336 495.327 57.704 495.343 58.04C495.359 58.376 495.383 58.696 495.415 59H493.495C493.447 58.424 493.423 57.848 493.423 57.272H493.375C492.895 58.008 492.327 58.528 491.671 58.832C491.015 59.136 490.255 59.288 489.391 59.288C488.863 59.288 488.359 59.216 487.879 59.072C487.399 58.928 486.975 58.712 486.607 58.424C486.255 58.136 485.975 57.784 485.767 57.368C485.559 56.936 485.455 56.44 485.455 55.88C485.455 55.144 485.615 54.528 485.935 54.032C486.271 53.536 486.719 53.136 487.279 52.832C487.855 52.512 488.519 52.288 489.271 52.16C490.039 52.016 490.855 51.944 491.719 51.944H493.303V51.464C493.303 51.176 493.247 50.888 493.135 50.6C493.023 50.312 492.855 50.056 492.631 49.832C492.407 49.592 492.127 49.408 491.791 49.28C491.455 49.136 491.055 49.064 490.591 49.064C490.175 49.064 489.807 49.104 489.487 49.184C489.183 49.264 488.903 49.368 488.647 49.496C488.391 49.608 488.159 49.744 487.951 49.904C487.743 50.064 487.543 50.216 487.351 50.36L486.055 49.016ZM492.151 53.528C491.639 53.528 491.111 53.56 490.567 53.624C490.039 53.672 489.551 53.776 489.103 53.936C488.671 54.096 488.311 54.32 488.023 54.608C487.751 54.896 487.615 55.264 487.615 55.712C487.615 56.368 487.831 56.84 488.263 57.128C488.711 57.416 489.311 57.56 490.063 57.56C490.655 57.56 491.159 57.464 491.575 57.272C491.991 57.064 492.327 56.8 492.583 56.48C492.839 56.16 493.023 55.808 493.135 55.424C493.247 55.024 493.303 54.632 493.303 54.248V53.528H492.151ZM497.084 47.624H499.58L502.964 56.504H503.012L506.228 47.624H508.556L503.156 61.448C502.964 61.944 502.764 62.392 502.556 62.792C502.348 63.208 502.1 63.56 501.812 63.848C501.524 64.136 501.172 64.36 500.756 64.52C500.356 64.68 499.86 64.76 499.268 64.76C498.948 64.76 498.62 64.736 498.284 64.688C497.964 64.656 497.652 64.576 497.348 64.448L497.612 62.48C498.044 62.656 498.476 62.744 498.908 62.744C499.244 62.744 499.524 62.696 499.748 62.6C499.988 62.52 500.188 62.392 500.348 62.216C500.524 62.056 500.668 61.864 500.78 61.64C500.892 61.416 501.004 61.16 501.116 60.872L501.812 59.072L497.084 47.624Z" fill="white"/>
<path d="M424.432 76.212H425.488V81.778C425.488 82.2693 425.411 82.6727 425.257 82.988C425.103 83.296 424.909 83.5417 424.674 83.725C424.447 83.901 424.201 84.022 423.937 84.088C423.673 84.1613 423.431 84.198 423.211 84.198C422.661 84.198 422.195 84.0587 421.814 83.78C421.44 83.494 421.202 83.065 421.099 82.493L422.133 82.262C422.192 82.5553 422.313 82.7863 422.496 82.955C422.679 83.1237 422.918 83.208 423.211 83.208C423.475 83.208 423.684 83.1567 423.838 83.054C423.999 82.9513 424.124 82.8193 424.212 82.658C424.3 82.4893 424.359 82.2987 424.388 82.086C424.417 81.8733 424.432 81.657 424.432 81.437V76.212ZM431.675 84H430.685V83.197H430.663C430.538 83.4757 430.322 83.703 430.014 83.879C429.706 84.0477 429.35 84.132 428.947 84.132C428.69 84.132 428.448 84.0917 428.221 84.011C427.993 83.9377 427.792 83.8203 427.616 83.659C427.447 83.4977 427.311 83.2923 427.209 83.043C427.106 82.7863 427.055 82.4857 427.055 82.141V78.786H428.045V81.866C428.045 82.108 428.078 82.317 428.144 82.493C428.21 82.6617 428.298 82.801 428.408 82.911C428.518 83.0137 428.642 83.0907 428.782 83.142C428.928 83.186 429.079 83.208 429.233 83.208C429.438 83.208 429.629 83.175 429.805 83.109C429.981 83.043 430.135 82.9403 430.267 82.801C430.399 82.6543 430.501 82.471 430.575 82.251C430.648 82.031 430.685 81.7707 430.685 81.47V78.786H431.675V84ZM433.167 78.786H434.157V79.589H434.179C434.304 79.3103 434.52 79.0867 434.828 78.918C435.136 78.742 435.492 78.654 435.895 78.654C436.144 78.654 436.383 78.6943 436.61 78.775C436.845 78.8483 437.046 78.9657 437.215 79.127C437.391 79.2883 437.53 79.4973 437.633 79.754C437.736 80.0033 437.787 80.3003 437.787 80.645V84H436.797V80.92C436.797 80.678 436.764 80.4727 436.698 80.304C436.632 80.128 436.544 79.9887 436.434 79.886C436.324 79.776 436.196 79.699 436.049 79.655C435.91 79.6037 435.763 79.578 435.609 79.578C435.404 79.578 435.213 79.611 435.037 79.677C434.861 79.743 434.707 79.8493 434.575 79.996C434.443 80.1353 434.34 80.315 434.267 80.535C434.194 80.755 434.157 81.0153 434.157 81.316V84H433.167V78.786ZM440.027 81.756C440.027 81.9833 440.075 82.1923 440.17 82.383C440.273 82.5663 440.405 82.724 440.566 82.856C440.728 82.988 440.915 83.0907 441.127 83.164C441.34 83.2373 441.56 83.274 441.787 83.274C442.095 83.274 442.363 83.2043 442.59 83.065C442.818 82.9183 443.027 82.7277 443.217 82.493L443.965 83.065C443.415 83.7763 442.645 84.132 441.655 84.132C441.245 84.132 440.871 84.0623 440.533 83.923C440.203 83.7837 439.921 83.593 439.686 83.351C439.459 83.1017 439.283 82.812 439.158 82.482C439.034 82.1447 438.971 81.7817 438.971 81.393C438.971 81.0043 439.037 80.645 439.169 80.315C439.309 79.9777 439.496 79.688 439.73 79.446C439.972 79.1967 440.258 79.0023 440.588 78.863C440.918 78.7237 441.278 78.654 441.666 78.654C442.128 78.654 442.517 78.7347 442.832 78.896C443.155 79.0573 443.419 79.27 443.624 79.534C443.83 79.7907 443.976 80.084 444.064 80.414C444.16 80.7367 444.207 81.0667 444.207 81.404V81.756H440.027ZM443.151 80.964C443.144 80.744 443.107 80.5423 443.041 80.359C442.983 80.1757 442.891 80.018 442.766 79.886C442.642 79.7467 442.484 79.6403 442.293 79.567C442.11 79.4863 441.894 79.446 441.644 79.446C441.402 79.446 441.179 79.4937 440.973 79.589C440.775 79.677 440.607 79.7943 440.467 79.941C440.328 80.0877 440.218 80.2527 440.137 80.436C440.064 80.612 440.027 80.788 440.027 80.964H443.151ZM449.322 82.097C449.447 82.471 449.612 82.7497 449.817 82.933C450.03 83.1163 450.341 83.208 450.752 83.208C450.957 83.208 451.148 83.175 451.324 83.109C451.507 83.0357 451.669 82.9403 451.808 82.823C451.947 82.6983 452.057 82.5517 452.138 82.383C452.219 82.207 452.259 82.0127 452.259 81.8C452.259 81.4773 452.189 81.2207 452.05 81.03C451.918 80.832 451.746 80.6853 451.533 80.59C451.32 80.4873 451.086 80.4213 450.829 80.392C450.572 80.3627 450.319 80.348 450.07 80.348V79.424C450.473 79.424 450.803 79.3983 451.06 79.347C451.317 79.2883 451.518 79.2077 451.665 79.105C451.812 79.0023 451.914 78.874 451.973 78.72C452.032 78.566 452.061 78.3937 452.061 78.203C452.061 77.785 451.936 77.4697 451.687 77.257C451.438 77.0443 451.126 76.938 450.752 76.938C450.466 76.938 450.206 77.0223 449.971 77.191C449.744 77.3523 449.571 77.5687 449.454 77.84L448.376 77.477C448.581 76.9783 448.893 76.6117 449.311 76.377C449.736 76.135 450.209 76.014 450.73 76.014C451.045 76.014 451.346 76.058 451.632 76.146C451.925 76.2267 452.182 76.355 452.402 76.531C452.622 76.707 452.794 76.9307 452.919 77.202C453.051 77.466 453.117 77.7777 453.117 78.137C453.117 78.5477 452.992 78.9143 452.743 79.237C452.501 79.5597 452.182 79.7797 451.786 79.897V79.919C452.028 79.963 452.244 80.0437 452.435 80.161C452.626 80.2783 452.787 80.425 452.919 80.601C453.051 80.777 453.15 80.975 453.216 81.195C453.282 81.4077 453.315 81.635 453.315 81.877C453.315 82.251 453.242 82.581 453.095 82.867C452.956 83.1457 452.765 83.3803 452.523 83.571C452.288 83.7543 452.013 83.8937 451.698 83.989C451.39 84.0843 451.064 84.132 450.719 84.132C450.125 84.132 449.601 83.9963 449.146 83.725C448.699 83.4537 448.387 83.0247 448.211 82.438L449.322 82.097Z" fill="#DFDFDF"/>
<path d="M1023.5 26V25.5H1023H789C780.44 25.5 773.5 32.4396 773.5 41V93C773.5 101.56 780.44 108.5 789 108.5H1023H1023.5V108V26Z" fill="#232526" stroke="#2C2C2C"/>
<path d="M796.024 42.008H798.424L802.168 55.592H802.216L806.224 42.008H808.864L812.872 55.592H812.92L816.664 42.008H819.064L814.12 59H811.696L807.568 45.128H807.52L803.416 59H800.992L796.024 42.008ZM821.225 54.104C821.225 54.6 821.329 55.056 821.537 55.472C821.761 55.872 822.049 56.216 822.401 56.504C822.753 56.792 823.161 57.016 823.625 57.176C824.089 57.336 824.569 57.416 825.065 57.416C825.737 57.416 826.321 57.264 826.817 56.96C827.313 56.64 827.769 56.224 828.185 55.712L829.817 56.96C828.617 58.512 826.937 59.288 824.777 59.288C823.881 59.288 823.065 59.136 822.329 58.832C821.609 58.528 820.993 58.112 820.481 57.584C819.985 57.04 819.601 56.408 819.329 55.688C819.057 54.952 818.921 54.16 818.921 53.312C818.921 52.464 819.065 51.68 819.353 50.96C819.657 50.224 820.065 49.592 820.577 49.064C821.105 48.52 821.729 48.096 822.449 47.792C823.169 47.488 823.953 47.336 824.801 47.336C825.809 47.336 826.657 47.512 827.345 47.864C828.049 48.216 828.625 48.68 829.073 49.256C829.521 49.816 829.841 50.456 830.033 51.176C830.241 51.88 830.345 52.6 830.345 53.336V54.104H821.225ZM828.041 52.376C828.025 51.896 827.945 51.456 827.801 51.056C827.673 50.656 827.473 50.312 827.201 50.024C826.929 49.72 826.585 49.488 826.169 49.328C825.769 49.152 825.297 49.064 824.753 49.064C824.225 49.064 823.737 49.168 823.289 49.376C822.857 49.568 822.489 49.824 822.185 50.144C821.881 50.464 821.641 50.824 821.465 51.224C821.305 51.608 821.225 51.992 821.225 52.376H828.041ZM844.329 59H842.169V57.368H842.121C841.705 57.976 841.129 58.448 840.393 58.784C839.673 59.12 838.929 59.288 838.161 59.288C837.281 59.288 836.481 59.136 835.761 58.832C835.057 58.528 834.449 58.104 833.937 57.56C833.441 57.016 833.057 56.384 832.785 55.664C832.513 54.944 832.377 54.16 832.377 53.312C832.377 52.464 832.513 51.68 832.785 50.96C833.057 50.224 833.441 49.592 833.937 49.064C834.449 48.52 835.057 48.096 835.761 47.792C836.481 47.488 837.281 47.336 838.161 47.336C838.977 47.336 839.745 47.512 840.465 47.864C841.185 48.2 841.737 48.664 842.121 49.256H842.169V40.856H844.329V59ZM838.425 57.272C839.001 57.272 839.521 57.176 839.985 56.984C840.449 56.776 840.841 56.504 841.161 56.168C841.481 55.816 841.729 55.4 841.905 54.92C842.081 54.424 842.169 53.888 842.169 53.312C842.169 52.736 842.081 52.208 841.905 51.728C841.729 51.232 841.481 50.816 841.161 50.48C840.841 50.128 840.449 49.856 839.985 49.664C839.521 49.456 839.001 49.352 838.425 49.352C837.849 49.352 837.329 49.456 836.865 49.664C836.401 49.856 836.009 50.128 835.689 50.48C835.369 50.816 835.121 51.232 834.945 51.728C834.769 52.208 834.681 52.736 834.681 53.312C834.681 53.888 834.769 54.424 834.945 54.92C835.121 55.4 835.369 55.816 835.689 56.168C836.009 56.504 836.401 56.776 836.865 56.984C837.329 57.176 837.849 57.272 838.425 57.272ZM847.601 47.624H849.761V49.376H849.809C850.081 48.768 850.553 48.28 851.225 47.912C851.897 47.528 852.673 47.336 853.553 47.336C854.097 47.336 854.617 47.424 855.113 47.6C855.625 47.76 856.065 48.016 856.433 48.368C856.817 48.72 857.121 49.176 857.345 49.736C857.569 50.28 857.681 50.928 857.681 51.68V59H855.521V52.28C855.521 51.752 855.449 51.304 855.305 50.936C855.161 50.552 854.969 50.248 854.729 50.024C854.489 49.784 854.209 49.616 853.889 49.52C853.585 49.408 853.265 49.352 852.929 49.352C852.481 49.352 852.065 49.424 851.681 49.568C851.297 49.712 850.961 49.944 850.673 50.264C850.385 50.568 850.161 50.96 850.001 51.44C849.841 51.92 849.761 52.488 849.761 53.144V59H847.601V47.624ZM862.569 54.104C862.569 54.6 862.673 55.056 862.881 55.472C863.105 55.872 863.393 56.216 863.745 56.504C864.097 56.792 864.505 57.016 864.969 57.176C865.433 57.336 865.913 57.416 866.409 57.416C867.081 57.416 867.665 57.264 868.161 56.96C868.657 56.64 869.113 56.224 869.529 55.712L871.161 56.96C869.961 58.512 868.281 59.288 866.121 59.288C865.225 59.288 864.409 59.136 863.673 58.832C862.953 58.528 862.337 58.112 861.825 57.584C861.329 57.04 860.945 56.408 860.673 55.688C860.401 54.952 860.265 54.16 860.265 53.312C860.265 52.464 860.409 51.68 860.697 50.96C861.001 50.224 861.409 49.592 861.921 49.064C862.449 48.52 863.073 48.096 863.793 47.792C864.513 47.488 865.297 47.336 866.145 47.336C867.153 47.336 868.001 47.512 868.689 47.864C869.393 48.216 869.969 48.68 870.417 49.256C870.865 49.816 871.185 50.456 871.377 51.176C871.585 51.88 871.689 52.6 871.689 53.336V54.104H862.569ZM869.385 52.376C869.369 51.896 869.289 51.456 869.145 51.056C869.017 50.656 868.817 50.312 868.545 50.024C868.273 49.72 867.929 49.488 867.513 49.328C867.113 49.152 866.641 49.064 866.097 49.064C865.569 49.064 865.081 49.168 864.633 49.376C864.201 49.568 863.833 49.824 863.529 50.144C863.225 50.464 862.985 50.824 862.809 51.224C862.649 51.608 862.569 51.992 862.569 52.376H869.385ZM880.321 50.48C880.065 50.16 879.745 49.896 879.361 49.688C878.993 49.464 878.537 49.352 877.993 49.352C877.481 49.352 877.033 49.464 876.649 49.688C876.281 49.896 876.097 50.208 876.097 50.624C876.097 50.96 876.201 51.232 876.409 51.44C876.633 51.648 876.889 51.816 877.177 51.944C877.481 52.072 877.801 52.168 878.137 52.232C878.473 52.296 878.761 52.352 879.001 52.4C879.465 52.512 879.897 52.648 880.297 52.808C880.713 52.968 881.065 53.176 881.353 53.432C881.657 53.688 881.889 54 882.049 54.368C882.225 54.736 882.313 55.184 882.313 55.712C882.313 56.352 882.177 56.904 881.905 57.368C881.633 57.816 881.281 58.184 880.849 58.472C880.417 58.76 879.921 58.968 879.361 59.096C878.817 59.224 878.265 59.288 877.705 59.288C876.761 59.288 875.929 59.144 875.209 58.856C874.505 58.568 873.873 58.04 873.313 57.272L874.945 55.928C875.297 56.28 875.689 56.592 876.121 56.864C876.553 57.136 877.081 57.272 877.705 57.272C877.977 57.272 878.249 57.248 878.521 57.2C878.809 57.136 879.057 57.048 879.265 56.936C879.489 56.808 879.665 56.656 879.793 56.48C879.937 56.288 880.009 56.072 880.009 55.832C880.009 55.512 879.905 55.248 879.697 55.04C879.505 54.832 879.265 54.672 878.977 54.56C878.705 54.432 878.409 54.336 878.089 54.272C877.785 54.192 877.513 54.128 877.273 54.08C876.809 53.968 876.369 53.84 875.953 53.696C875.537 53.552 875.169 53.36 874.849 53.12C874.529 52.88 874.273 52.576 874.081 52.208C873.889 51.84 873.793 51.384 873.793 50.84C873.793 50.248 873.913 49.736 874.153 49.304C874.409 48.856 874.737 48.488 875.137 48.2C875.553 47.912 876.017 47.696 876.529 47.552C877.057 47.408 877.585 47.336 878.113 47.336C878.881 47.336 879.617 47.48 880.321 47.768C881.025 48.056 881.585 48.536 882.001 49.208L880.321 50.48ZM896.337 59H894.177V57.368H894.129C893.713 57.976 893.137 58.448 892.401 58.784C891.681 59.12 890.937 59.288 890.169 59.288C889.289 59.288 888.489 59.136 887.769 58.832C887.065 58.528 886.457 58.104 885.945 57.56C885.449 57.016 885.065 56.384 884.793 55.664C884.521 54.944 884.385 54.16 884.385 53.312C884.385 52.464 884.521 51.68 884.793 50.96C885.065 50.224 885.449 49.592 885.945 49.064C886.457 48.52 887.065 48.096 887.769 47.792C888.489 47.488 889.289 47.336 890.169 47.336C890.985 47.336 891.753 47.512 892.473 47.864C893.193 48.2 893.745 48.664 894.129 49.256H894.177V40.856H896.337V59ZM890.433 57.272C891.009 57.272 891.529 57.176 891.993 56.984C892.457 56.776 892.849 56.504 893.169 56.168C893.489 55.816 893.737 55.4 893.913 54.92C894.089 54.424 894.177 53.888 894.177 53.312C894.177 52.736 894.089 52.208 893.913 51.728C893.737 51.232 893.489 50.816 893.169 50.48C892.849 50.128 892.457 49.856 891.993 49.664C891.529 49.456 891.009 49.352 890.433 49.352C889.857 49.352 889.337 49.456 888.873 49.664C888.409 49.856 888.017 50.128 887.697 50.48C887.377 50.816 887.129 51.232 886.953 51.728C886.777 52.208 886.689 52.736 886.689 53.312C886.689 53.888 886.777 54.424 886.953 54.92C887.129 55.4 887.377 55.816 887.697 56.168C888.017 56.504 888.409 56.776 888.873 56.984C889.337 57.176 889.857 57.272 890.433 57.272ZM899.657 49.016C900.265 48.456 900.969 48.04 901.769 47.768C902.569 47.48 903.369 47.336 904.169 47.336C905.001 47.336 905.713 47.44 906.305 47.648C906.913 47.856 907.409 48.136 907.793 48.488C908.177 48.84 908.457 49.248 908.633 49.712C908.825 50.16 908.921 50.632 908.921 51.128V56.936C908.921 57.336 908.929 57.704 908.945 58.04C908.961 58.376 908.985 58.696 909.017 59H907.097C907.049 58.424 907.025 57.848 907.025 57.272H906.977C906.497 58.008 905.929 58.528 905.273 58.832C904.617 59.136 903.857 59.288 902.993 59.288C902.465 59.288 901.961 59.216 901.481 59.072C901.001 58.928 900.577 58.712 900.209 58.424C899.857 58.136 899.577 57.784 899.369 57.368C899.161 56.936 899.057 56.44 899.057 55.88C899.057 55.144 899.217 54.528 899.537 54.032C899.873 53.536 900.321 53.136 900.881 52.832C901.457 52.512 902.121 52.288 902.873 52.16C903.641 52.016 904.457 51.944 905.321 51.944H906.905V51.464C906.905 51.176 906.849 50.888 906.737 50.6C906.625 50.312 906.457 50.056 906.233 49.832C906.009 49.592 905.729 49.408 905.393 49.28C905.057 49.136 904.657 49.064 904.193 49.064C903.777 49.064 903.409 49.104 903.089 49.184C902.785 49.264 902.505 49.368 902.249 49.496C901.993 49.608 901.761 49.744 901.553 49.904C901.345 50.064 901.145 50.216 900.953 50.36L899.657 49.016ZM905.753 53.528C905.241 53.528 904.713 53.56 904.169 53.624C903.641 53.672 903.153 53.776 902.705 53.936C902.273 54.096 901.913 54.32 901.625 54.608C901.353 54.896 901.217 55.264 901.217 55.712C901.217 56.368 901.433 56.84 901.865 57.128C902.313 57.416 902.913 57.56 903.665 57.56C904.257 57.56 904.761 57.464 905.177 57.272C905.593 57.064 905.929 56.8 906.185 56.48C906.441 56.16 906.625 55.808 906.737 55.424C906.849 55.024 906.905 54.632 906.905 54.248V53.528H905.753ZM910.686 47.624H913.182L916.566 56.504H916.614L919.83 47.624H922.158L916.758 61.448C916.566 61.944 916.366 62.392 916.158 62.792C915.95 63.208 915.702 63.56 915.414 63.848C915.126 64.136 914.774 64.36 914.358 64.52C913.958 64.68 913.462 64.76 912.87 64.76C912.55 64.76 912.222 64.736 911.886 64.688C911.566 64.656 911.254 64.576 910.95 64.448L911.214 62.48C911.646 62.656 912.078 62.744 912.51 62.744C912.846 62.744 913.126 62.696 913.35 62.6C913.59 62.52 913.79 62.392 913.95 62.216C914.126 62.056 914.27 61.864 914.382 61.64C914.494 61.416 914.606 61.16 914.718 60.872L915.414 59.072L910.686 47.624Z" fill="white"/>
<path d="M799.432 76.212H800.488V81.778C800.488 82.2693 800.411 82.6727 800.257 82.988C800.103 83.296 799.909 83.5417 799.674 83.725C799.447 83.901 799.201 84.022 798.937 84.088C798.673 84.1613 798.431 84.198 798.211 84.198C797.661 84.198 797.195 84.0587 796.814 83.78C796.44 83.494 796.202 83.065 796.099 82.493L797.133 82.262C797.192 82.5553 797.313 82.7863 797.496 82.955C797.679 83.1237 797.918 83.208 798.211 83.208C798.475 83.208 798.684 83.1567 798.838 83.054C798.999 82.9513 799.124 82.8193 799.212 82.658C799.3 82.4893 799.359 82.2987 799.388 82.086C799.417 81.8733 799.432 81.657 799.432 81.437V76.212ZM806.675 84H805.685V83.197H805.663C805.538 83.4757 805.322 83.703 805.014 83.879C804.706 84.0477 804.35 84.132 803.947 84.132C803.69 84.132 803.448 84.0917 803.221 84.011C802.993 83.9377 802.792 83.8203 802.616 83.659C802.447 83.4977 802.311 83.2923 802.209 83.043C802.106 82.7863 802.055 82.4857 802.055 82.141V78.786H803.045V81.866C803.045 82.108 803.078 82.317 803.144 82.493C803.21 82.6617 803.298 82.801 803.408 82.911C803.518 83.0137 803.642 83.0907 803.782 83.142C803.928 83.186 804.079 83.208 804.233 83.208C804.438 83.208 804.629 83.175 804.805 83.109C804.981 83.043 805.135 82.9403 805.267 82.801C805.399 82.6543 805.501 82.471 805.575 82.251C805.648 82.031 805.685 81.7707 805.685 81.47V78.786H806.675V84ZM808.167 78.786H809.157V79.589H809.179C809.304 79.3103 809.52 79.0867 809.828 78.918C810.136 78.742 810.492 78.654 810.895 78.654C811.144 78.654 811.383 78.6943 811.61 78.775C811.845 78.8483 812.046 78.9657 812.215 79.127C812.391 79.2883 812.53 79.4973 812.633 79.754C812.736 80.0033 812.787 80.3003 812.787 80.645V84H811.797V80.92C811.797 80.678 811.764 80.4727 811.698 80.304C811.632 80.128 811.544 79.9887 811.434 79.886C811.324 79.776 811.196 79.699 811.049 79.655C810.91 79.6037 810.763 79.578 810.609 79.578C810.404 79.578 810.213 79.611 810.037 79.677C809.861 79.743 809.707 79.8493 809.575 79.996C809.443 80.1353 809.34 80.315 809.267 80.535C809.194 80.755 809.157 81.0153 809.157 81.316V84H808.167V78.786ZM815.027 81.756C815.027 81.9833 815.075 82.1923 815.17 82.383C815.273 82.5663 815.405 82.724 815.566 82.856C815.728 82.988 815.915 83.0907 816.127 83.164C816.34 83.2373 816.56 83.274 816.787 83.274C817.095 83.274 817.363 83.2043 817.59 83.065C817.818 82.9183 818.027 82.7277 818.217 82.493L818.965 83.065C818.415 83.7763 817.645 84.132 816.655 84.132C816.245 84.132 815.871 84.0623 815.533 83.923C815.203 83.7837 814.921 83.593 814.686 83.351C814.459 83.1017 814.283 82.812 814.158 82.482C814.034 82.1447 813.971 81.7817 813.971 81.393C813.971 81.0043 814.037 80.645 814.169 80.315C814.309 79.9777 814.496 79.688 814.73 79.446C814.972 79.1967 815.258 79.0023 815.588 78.863C815.918 78.7237 816.278 78.654 816.666 78.654C817.128 78.654 817.517 78.7347 817.832 78.896C818.155 79.0573 818.419 79.27 818.624 79.534C818.83 79.7907 818.976 80.084 819.064 80.414C819.16 80.7367 819.207 81.0667 819.207 81.404V81.756H815.027ZM818.151 80.964C818.144 80.744 818.107 80.5423 818.041 80.359C817.983 80.1757 817.891 80.018 817.766 79.886C817.642 79.7467 817.484 79.6403 817.293 79.567C817.11 79.4863 816.894 79.446 816.644 79.446C816.402 79.446 816.179 79.4937 815.973 79.589C815.775 79.677 815.607 79.7943 815.467 79.941C815.328 80.0877 815.218 80.2527 815.137 80.436C815.064 80.612 815.027 80.788 815.027 80.964H818.151ZM826.401 82.284H823.079V81.206L826.181 76.212H827.457V81.36H828.557V82.284H827.457V84H826.401V82.284ZM826.401 77.466H826.379L824.003 81.36H826.401V77.466Z" fill="#DFDFDF"/>
<rect x="23.5" y="130.5" width="361" height="82" rx="15.5" fill="#232526" stroke="#2C2C2C"/>
<rect x="321.5" y="143.5" width="45" height="13" rx="6.5" fill="#0076B0" stroke="#2C2C2C"/>
<rect x="398.5" y="130.5" width="361" height="82" rx="15.5" fill="#232526" stroke="#2C2C2C"/>
<rect x="23.5" y="226.5" width="361" height="81" rx="15.5" fill="#232526" stroke="#2C2C2C"/>
<path d="M1023.5 227V226.5H1023H789C780.44 226.5 773.5 233.44 773.5 242V292C773.5 300.56 780.44 307.5 789 307.5H1023H1023.5V307V227Z" fill="#232526" stroke="#2C2C2C"/>
<rect x="23.5" y="513.5" width="361" height="81" rx="15.5" fill="#232526" stroke="#2C2C2C"/>
<rect x="398.5" y="226.5" width="361" height="81" rx="15.5" fill="#232526" stroke="#2C2C2C"/>
<rect x="398.5" y="322.5" width="361" height="81" rx="15.5" fill="#232526" stroke="#2C2C2C"/>
<rect x="23.5" y="322.5" width="361" height="81" rx="15.5" fill="#232526" stroke="#2C2C2C"/>
<path d="M1023.5 323V322.5H1023H789C780.44 322.5 773.5 329.44 773.5 338V388C773.5 396.56 780.44 403.5 789 403.5H1023H1023.5V403V323Z" fill="#232526" stroke="#2C2C2C"/>
<rect x="23.5" y="609.5" width="361" height="81" rx="15.5" fill="#232526" stroke="#2C2C2C"/>
<rect x="23.5" y="417.5" width="361" height="82" rx="15.5" fill="#232526" stroke="#2C2C2C"/>
<path d="M1023.5 418V417.5H1023H789C780.44 417.5 773.5 424.44 773.5 433V484C773.5 492.56 780.44 499.5 789 499.5H1023H1023.5V499V418Z" fill="#232526" stroke="#2C2C2C"/>
<path d="M1023.5 131V130.5H1023H789C780.44 130.5 773.5 137.44 773.5 146V197C773.5 205.56 780.44 212.5 789 212.5H1023H1023.5V212V131Z" fill="#232526" stroke="#2C2C2C"/>
<rect x="321.5" y="240.5" width="45" height="13" rx="6.5" fill="#0EB000" stroke="#2C2C2C"/>
<rect x="321.5" y="527.5" width="45" height="13" rx="6.5" fill="#0EB000" stroke="#2C2C2C"/>
<rect x="321.5" y="337.5" width="45" height="13" rx="6.5" fill="#E8B503" stroke="#2C2C2C"/>
<rect x="321.5" y="624.5" width="45" height="13" rx="6.5" fill="#E8B503" stroke="#2C2C2C"/>
<rect x="321.5" y="434.5" width="45" height="13" rx="6.5" fill="#FF0000" stroke="#2C2C2C"/>
<rect x="694.5" y="143.5" width="45" height="13" rx="6.5" fill="#0076B0" stroke="#2C2C2C"/>
<path d="M1023.5 144V143.5H1023H1003C999.41 143.5 996.5 146.41 996.5 150C996.5 153.59 999.41 156.5 1003 156.5H1023H1023.5V156V144Z" fill="#0EB000" stroke="#2C2C2C"/>
<path d="M1023.5 241V240.5H1023H1003C999.41 240.5 996.5 243.41 996.5 247C996.5 250.59 999.41 253.5 1003 253.5H1023H1023.5V253V241Z" fill="#0076B0" stroke="#2C2C2C"/>
<path d="M1023.5 338V337.5H1023H1003C999.41 337.5 996.5 340.41 996.5 344C996.5 347.59 999.41 350.5 1003 350.5H1023H1023.5V350V338Z" fill="#FF0000" stroke="#2C2C2C"/>
<path d="M1023.5 435V434.5H1023H1003C999.41 434.5 996.5 437.41 996.5 441C996.5 444.59 999.41 447.5 1003 447.5H1023H1023.5V447V435Z" fill="#0076B0" stroke="#2C2C2C"/>
<rect x="694.5" y="240.5" width="45" height="13" rx="6.5" fill="#E8B503" stroke="#2C2C2C"/>
<rect x="694.5" y="336.5" width="45" height="13" rx="6.5" fill="#E8B503" stroke="#2C2C2C"/>
</g>
<defs>
<filter id="filter0_d" x="-4" y="-4" width="1040" height="712" filterUnits="userSpaceOnUse" color-interpolation-filters="sRGB">
<feFlood flood-opacity="0" result="BackgroundImageFix"/>
<feColorMatrix in="SourceAlpha" type="matrix" values="0 0 0 0 0 0 0 0 0 0 0 0 0 0 0 0 0 0 127 0"/>
<feOffset dx="2" dy="2"/>
<feGaussianBlur stdDeviation="3"/>
<feColorMatrix type="matrix" values="0 0 0 0 0.172549 0 0 0 0 0.172549 0 0 0 0 0.172549 0 0 0 1 0"/>
<feBlend mode="normal" in2="BackgroundImageFix" result="effect1_dropShadow"/>
<feBlend mode="normal" in="SourceGraphic" in2="effect1_dropShadow" result="shape"/>
</filter>
<clipPath id="clip0">
<rect width="1028" height="705" fill="white"/>
</clipPath>
</defs>
</svg>
